<?xml version="1.0" encoding="utf-8"?>
<!-- Generator: Adobe Illustrator 16.0.0, SVG Export Plug-In . SVG Version: 6.00 Build 0)  -->
<!DOCTYPE svg PUBLIC "-//W3C//DTD SVG 1.1//EN" "http://www.w3.org/Graphics/SVG/1.1/DTD/svg11.dtd">
<svg version="1.1" id="Layer_1" xmlns="http://www.w3.org/2000/svg" xmlns:xlink="http://www.w3.org/1999/xlink" x="0px" y="0px"
	 width="151.434px" height="151.434px" viewBox="0 0 151.434 151.434" enable-background="new 0 0 151.434 151.434"
	 xml:space="preserve">
<g>
	<g>
		<path fill="#FFFFFF" d="M75.717,151.434C33.965,151.434,0,117.465,0,75.717C0,33.969,33.965,0,75.717,0
			c41.748,0,75.717,33.969,75.717,75.717C151.434,117.465,117.465,151.434,75.717,151.434z M75.717,15.144
			c-33.399,0-60.573,27.174-60.573,60.573c0,33.4,27.174,60.573,60.573,60.573s60.573-27.173,60.573-60.573
			C136.29,42.317,109.116,15.144,75.717,15.144z"/>
	</g>
	<g>
		<polygon fill="#FFFFFF" points="69.354,113.028 38.738,82.412 52.122,69.025 66.937,83.836 98.299,39.933 113.708,50.932 		"/>
	</g>
</g>
</svg>
