<?xml version="1.0" encoding="utf-8"?>
<!-- Generator: Adobe Illustrator 16.0.0, SVG Export Plug-In . SVG Version: 6.00 Build 0)  -->
<!DOCTYPE svg PUBLIC "-//W3C//DTD SVG 1.1//EN" "http://www.w3.org/Graphics/SVG/1.1/DTD/svg11.dtd">
<svg version="1.1" id="Layer_1" xmlns="http://www.w3.org/2000/svg" xmlns:xlink="http://www.w3.org/1999/xlink" x="0px" y="0px"
	 width="513px" height="79.837px" viewBox="0 0 513 79.837" enable-background="new 0 0 513 79.837" xml:space="preserve">
<g>
	<g>
		<path fill="#FFFFFF" d="M341.258,16.653c3.424-0.721,8.83-1.261,14.327-1.261c7.839,0,12.885,1.352,16.669,4.415
			c3.154,2.343,5.046,5.946,5.046,10.722c0,5.857-3.875,10.993-10.272,13.336v0.18c5.767,1.441,12.524,6.217,12.524,15.228
			c0,5.226-2.072,9.19-5.136,12.164c-4.235,3.874-11.083,5.677-20.994,5.677c-5.406,0-9.551-0.36-12.164-0.722V16.653z
			 M349.098,41.522h7.118c8.289,0,13.155-4.325,13.155-10.182c0-7.118-5.406-9.912-13.335-9.912c-3.604,0-5.677,0.271-6.938,0.541
			V41.522z M349.098,70.625c1.532,0.271,3.784,0.361,6.577,0.361c8.109,0,15.588-2.974,15.588-11.804
			c0-8.29-7.118-11.714-15.678-11.714h-6.487V70.625z"/>
		<path fill="#FFFFFF" d="M387.117,46.568c0-5.137-0.09-9.552-0.36-13.606h6.938l0.27,8.561h0.36
			c1.982-5.857,6.758-9.551,12.074-9.551c0.901,0,1.532,0.09,2.253,0.27v7.479c-0.811-0.18-1.622-0.27-2.703-0.27
			c-5.586,0-9.551,4.234-10.632,10.182c-0.18,1.081-0.36,2.342-0.36,3.693v23.247h-7.839V46.568z"/>
		<path fill="#FFFFFF" d="M437.573,76.572l-0.631-5.496h-0.271c-2.432,3.424-7.117,6.487-13.335,6.487
			c-8.83,0-13.335-6.217-13.335-12.524c0-10.542,9.371-16.309,26.22-16.219v-0.9c0-3.604-0.991-10.092-9.911-10.092
			c-4.055,0-8.29,1.262-11.353,3.243l-1.802-5.226c3.604-2.343,8.83-3.874,14.327-3.874c13.334,0,16.578,9.1,16.578,17.84V66.12
			c0,3.784,0.18,7.479,0.721,10.452H437.573z M436.402,54.316c-8.65-0.18-18.472,1.352-18.472,9.821
			c0,5.136,3.424,7.569,7.479,7.569c5.677,0,9.28-3.604,10.542-7.299c0.271-0.811,0.451-1.712,0.451-2.522V54.316z"/>
		<path fill="#FFFFFF" d="M453.067,68.463c2.343,1.532,6.487,3.153,10.452,3.153c5.768,0,8.469-2.883,8.469-6.487
			c0-3.784-2.252-5.856-8.108-8.019c-7.839-2.794-11.533-7.118-11.533-12.345c0-7.027,5.677-12.794,15.048-12.794
			c4.414,0,8.289,1.261,10.723,2.702l-1.982,5.767c-1.713-1.081-4.867-2.522-8.922-2.522c-4.685,0-7.297,2.703-7.297,5.947
			c0,3.604,2.612,5.226,8.289,7.388c7.568,2.884,11.443,6.668,11.443,13.155c0,7.659-5.947,13.065-16.309,13.065
			c-4.775,0-9.191-1.172-12.254-2.974L453.067,68.463z"/>
		<path fill="#FFFFFF" d="M495.953,20.708c0.092,2.703-1.891,4.866-5.045,4.866c-2.793,0-4.775-2.163-4.775-4.866
			c0-2.793,2.072-4.955,4.955-4.955C494.063,15.753,495.953,17.915,495.953,20.708z M487.123,76.572v-43.61h7.93v43.61H487.123z"/>
		<path fill="#FFFFFF" d="M505.502,12.599h7.93v63.974h-7.93V12.599z"/>
	</g>
	<path fill="#FFFFFF" d="M143.922,0h14.094l-14.608,66.634c-1.125,6.11-1.795,10.088-2.005,11.948h-13.139l1.362-7.954h-0.204
		c-2.211,3.053-4.716,5.351-7.526,6.89c-2.804,1.544-6.183,2.319-10.142,2.319c-4.086,0-7.527-1.023-10.329-3.062
		c-2.793-2.034-4.877-4.753-6.234-8.169c-1.359-3.412-2.04-7.138-2.04-11.178c0-5.628,1.027-11.062,3.09-16.306
		s5.149-9.518,9.254-12.818c4.107-3.293,9.071-4.951,14.884-4.951c6.657,0,12.231,2.554,16.712,7.653L143.922,0z M122.694,34.254
		c-3.101,0-5.776,1.2-8.035,3.598c-2.255,2.393-3.955,5.298-5.095,8.714c-1.137,3.425-1.706,6.618-1.706,9.589
		c0,3.354,0.658,6.329,1.978,8.912c1.318,2.578,3.532,3.87,6.645,3.87c3.268,0,6.149-1.09,8.642-3.284
		c2.486-2.188,4.404-4.984,5.751-8.376c1.339-3.392,2.014-6.808,2.014-10.232c0-2.216-0.374-4.299-1.108-6.251
		c-0.732-1.959-1.873-3.527-3.412-4.736C126.829,34.856,124.937,34.254,122.694,34.254z"/>
	<path fill="#FFFFFF" d="M161.635,78.582l-9.164-53.941h14.397l5.463,39.592h0.233l21.321-39.592h14.936l-31.642,53.941H161.635z"/>
	<path fill="#FFFFFF" d="M198.609,78.582l11.575-53.941h14.061l-11.55,53.941H198.609z"/>
	<path fill="#FFFFFF" d="M262.448,25.553l-3.031,10.566c-4.553-1.676-8.411-2.501-11.571-2.501c-2.575,0-4.791,0.421-6.668,1.263
		c-1.873,0.846-2.808,2.24-2.808,4.184c0,1.428,0.508,2.574,1.531,3.429c1.015,0.854,3.243,2.446,6.682,4.79
		c3.441,2.336,5.98,4.555,7.623,6.651c1.644,2.104,2.461,4.653,2.461,7.657c0,4.398-1.137,7.963-3.412,10.694
		c-2.271,2.731-5.24,4.671-8.891,5.826c-3.649,1.147-7.679,1.725-12.081,1.725c-6.343,0-11.852-1.085-16.503-3.247l3.053-11.21
		c2.533,1.386,4.798,2.426,6.808,3.144c1.997,0.701,4.21,1.057,6.643,1.057c2.651,0,4.929-0.491,6.835-1.469
		c1.894-0.982,2.849-2.488,2.849-4.522c0-1.91-0.691-3.466-2.053-4.662c-1.376-1.205-3.625-2.813-6.739-4.827
		c-3.127-2.014-5.492-4.019-7.105-6.032c-1.605-2.014-2.412-4.519-2.412-7.526c0-3.969,1.12-7.244,3.363-9.819
		c2.242-2.57,5.157-4.439,8.743-5.611c3.585-1.171,7.363-1.757,11.334-1.757C251.561,23.354,256.677,24.088,262.448,25.553z"/>
	<path fill="#FFFFFF" d="M310.094,55.947h-38.169c0,4.836,1.248,8.318,3.754,10.447c2.507,2.129,6.271,3.186,11.282,3.186
		c5.411,0,10.944-1.3,16.613-3.887l-1.77,11.095c-6.573,2.034-12.325,3.049-17.253,3.049c-5.24,0-9.818-0.866-13.733-2.583
		c-3.915-1.725-6.958-4.349-9.112-7.881c-2.158-3.531-3.235-7.9-3.235-13.096c0-4.158,0.776-8.23,2.323-12.212
		c1.549-3.981,3.724-7.534,6.531-10.657s6.085-5.574,9.83-7.361c3.75-1.795,7.787-2.693,12.12-2.693c4.5,0,8.411,0.767,11.728,2.293
		c3.325,1.527,5.896,3.834,7.72,6.932c1.819,3.095,2.731,6.866,2.731,11.318C311.456,47.684,311.001,51.698,310.094,55.947z
		 M273.823,46.306h23.868c0.21-1.25,0.313-2.472,0.313-3.668c0-2.905-0.759-5.142-2.277-6.692c-1.51-1.556-3.729-2.327-6.661-2.327
		c-4.087,0-7.26,1.064-9.519,3.198C277.287,38.957,275.38,42.117,273.823,46.306z"/>
	<polygon fill="#FFFFFF" points="94.756,79.316 77.27,79.366 57.268,23.299 35.665,56.225 0,79.325 52.119,5.991 67.009,5.991 	"/>
	<polygon fill="#F99B1C" points="30.905,79.325 0,79.325 52.028,49.28 	"/>
	<path fill="#FFFFFF" d="M318.395,23.304c1.135,0,2.211,0.288,3.251,0.85s1.849,1.374,2.442,2.427
		c0.586,1.047,0.892,2.153,0.892,3.3c0,1.155-0.297,2.241-0.875,3.284c-0.585,1.04-1.395,1.845-2.426,2.427
		c-1.04,0.581-2.138,0.874-3.284,0.874c-1.139,0-2.236-0.293-3.275-0.874c-1.041-0.582-1.841-1.387-2.427-2.427
		c-0.586-1.043-0.87-2.129-0.87-3.284c0-1.146,0.301-2.253,0.887-3.3c0.594-1.053,1.411-1.865,2.447-2.427
		C316.188,23.592,317.273,23.304,318.395,23.304z M318.412,24.591c-0.916,0-1.774,0.231-2.607,0.677
		c-0.825,0.462-1.485,1.105-1.964,1.951c-0.479,0.854-0.714,1.737-0.714,2.661c0,0.933,0.23,1.8,0.697,2.641
		c0.47,0.834,1.122,1.489,1.947,1.956c0.842,0.471,1.721,0.71,2.641,0.71c0.916,0,1.799-0.239,2.628-0.71
		c0.83-0.467,1.481-1.122,1.956-1.956c0.462-0.841,0.697-1.708,0.697-2.641c0-0.924-0.235-1.807-0.714-2.661
		c-0.475-0.846-1.131-1.489-1.969-1.951C320.177,24.822,319.311,24.591,318.412,24.591z M315.432,33.404v-6.985h1.412
		c1.328,0,2.07,0.012,2.231,0.021c0.475,0.041,0.838,0.132,1.094,0.28c0.268,0.148,0.479,0.367,0.659,0.669
		c0.174,0.301,0.256,0.635,0.256,0.998c0,0.508-0.164,0.94-0.494,1.295c-0.326,0.359-0.784,0.582-1.383,0.669
		c0.211,0.083,0.367,0.165,0.491,0.26c0.107,0.095,0.265,0.269,0.471,0.541c0.054,0.065,0.223,0.342,0.507,0.846l0.838,1.407h-1.758
		l-0.586-1.131c-0.4-0.768-0.727-1.238-0.978-1.444c-0.26-0.189-0.586-0.293-0.978-0.293h-0.371v2.868H315.432z M316.844,29.438
		h0.581c0.813,0,1.316-0.037,1.519-0.095c0.193-0.058,0.359-0.173,0.466-0.334c0.12-0.152,0.174-0.334,0.174-0.532
		c0-0.202-0.054-0.371-0.165-0.521c-0.115-0.152-0.272-0.264-0.479-0.33c-0.207-0.065-0.719-0.094-1.515-0.094h-0.581V29.438z"/>
	<path fill="#FFFFFF" d="M226.773,9.886c0-3.722-3.022-6.75-6.748-6.75c-3.732,0-6.748,3.028-6.748,6.75
		c0,3.734,3.016,6.75,6.748,6.75C223.75,16.636,226.773,13.62,226.773,9.886z"/>
</g>
</svg>
